<svg width="270" height="80" viewBox="0 0 270 80" fill="none" xmlns="http://www.w3.org/2000/svg">
<path d="M0.0117188 68.0726H3.05586L4.62599 71.9499L4.72212 72.9433H4.85029L4.94642 71.9499L6.51656 68.0726H9.5607V76.436H7.63808V70.8604L7.86239 69.803H7.63808L7.34969 70.8604L5.8116 74.4173H3.69673L2.15864 70.8604L1.87024 69.803H1.67798L1.90229 70.8604V76.436H0.0117188V68.0726Z" fill="white"/>
<path d="M19.5558 68.0726H21.9911L25.3557 76.436H23.369L22.7922 74.994H18.7227L18.1459 76.436H16.1592L19.5558 68.0726ZM22.1513 73.456L20.8055 69.9312H20.6773L19.3315 73.456H22.1513Z" fill="white"/>
<path d="M31.9891 68.0726H35.578C36.7957 68.0726 37.6608 68.2969 38.2056 68.7455C38.7503 69.1942 39.0067 69.8671 39.0067 70.7963C39.0067 71.309 38.9426 71.6936 38.7503 72.014C38.5901 72.3344 38.4299 72.5587 38.2376 72.751C38.0133 72.9753 37.789 73.1035 37.5006 73.1996L39.5835 76.436H37.4686L35.6101 73.5521H33.8797V76.436H31.9891V68.0726ZM35.578 71.9499C36.0587 71.9499 36.4432 71.8538 36.6675 71.6936C36.9238 71.5013 37.02 71.2129 37.02 70.7963C37.02 70.3798 36.8918 70.0914 36.6355 69.8991C36.3791 69.7069 36.0266 69.6107 35.546 69.6107H33.8797V71.9179H35.578V71.9499Z" fill="white"/>
<path d="M46.5603 68.0726H48.4509V72.1101L51.7514 68.0726H53.9944L50.5978 72.2063L54.1867 76.436H51.9436L48.4509 72.3024V76.436H46.5603V68.0726Z" fill="white"/>
<path d="M60.8202 68.0726H67.6775V69.6748H62.7108V71.4052H66.9085V72.9433H62.7108V74.8979H67.6775V76.5001H60.8202V68.0726Z" fill="white"/>
<path d="M77.091 69.7069H74.2391V68.0726H81.8335V69.7069H78.9816V76.436H77.091V69.7069Z" fill="white"/>
<path d="M88.6503 68.0726H92.1751C93.4248 68.0726 94.354 68.329 94.9308 68.8737C95.5076 69.4185 95.796 70.1875 95.796 71.1809C95.796 72.1742 95.5076 72.9433 94.9308 73.488C94.354 74.0327 93.4568 74.2891 92.1751 74.2891H90.5408V76.468H88.6503V68.0726ZM92.1751 72.6869C92.7198 72.6869 93.1043 72.5587 93.3927 72.3344C93.6811 72.0781 93.8093 71.6936 93.8093 71.2129C93.8093 70.7002 93.6811 70.3157 93.3927 70.0593C93.1043 69.803 92.7198 69.6748 92.1751 69.6748H90.5408V72.6869H92.1751Z" fill="white"/>
<path d="M103.1 68.0726H104.99V74.8018H109.829V76.436H103.1V68.0726Z" fill="white"/>
<path d="M119.073 68.0726H121.509L124.873 76.436H122.886L122.31 74.994H118.272L117.695 76.436H115.709L119.073 68.0726ZM121.701 73.456L120.355 69.9312H120.227L118.881 73.456H121.701Z" fill="white"/>
<path d="M135.64 76.5642C134.967 76.5642 134.359 76.4681 133.846 76.2758C133.333 76.0836 132.852 75.7952 132.5 75.4107C132.115 75.0261 131.827 74.5775 131.635 74.0648C131.443 73.5201 131.346 72.9433 131.346 72.2704C131.346 71.5975 131.443 71.0207 131.635 70.476C131.827 69.9312 132.115 69.4826 132.5 69.1301C132.885 68.7456 133.333 68.4572 133.846 68.265C134.391 68.0727 134.967 67.9766 135.64 67.9766C136.281 67.9766 136.858 68.0727 137.403 68.2329C137.947 68.3931 138.364 68.6495 138.748 68.9699C139.133 69.2903 139.389 69.6428 139.582 70.0594C139.774 70.476 139.87 70.9246 139.87 71.4052H137.851C137.787 71.0848 137.691 70.7964 137.499 70.508C137.339 70.2837 137.114 70.0914 136.826 69.8992C136.537 69.7069 136.121 69.6108 135.608 69.6108C135.224 69.6108 134.871 69.6749 134.583 69.803C134.294 69.9312 134.038 70.1235 133.846 70.3798C133.654 70.6362 133.493 70.8925 133.397 71.213C133.301 71.5334 133.237 71.8859 133.237 72.2384C133.237 72.5908 133.301 72.9433 133.397 73.2637C133.493 73.5842 133.654 73.8726 133.846 74.0969C134.038 74.3212 134.294 74.5134 134.583 74.6737C134.871 74.8018 135.224 74.8659 135.608 74.8659C136.121 74.8659 136.537 74.7698 136.826 74.5775C137.114 74.3853 137.339 74.193 137.499 73.9687C137.691 73.7124 137.787 73.424 137.851 73.0715H139.87C139.87 73.5521 139.774 74.0007 139.582 74.4173C139.389 74.8339 139.101 75.1864 138.748 75.5068C138.396 75.8272 137.947 76.0515 137.403 76.2438C136.858 76.4681 136.281 76.5642 135.64 76.5642Z" fill="white"/>
<path d="M147.192 68.0726H154.049V69.6748H149.082V71.4052H153.28V72.9433H149.082V74.8979H154.049V76.5001H147.192V68.0726Z" fill="white"/>
<path d="M218.753 30.4734C218.945 30.1209 219.073 29.9287 219.169 29.7364C222.181 22.9752 227.5 18.9377 234.486 17.0792C242.08 15.0605 249.611 15.413 256.948 18.2328C262.396 20.3156 266.626 23.8084 268.741 29.3839C269.317 30.9541 269.766 32.6203 269.894 34.2866C270.086 37.1064 269.958 39.9583 269.958 42.9384H232.339C232.467 43.4831 232.499 43.8676 232.627 44.1881C233.525 46.3991 235.127 47.9372 237.274 48.9625C239.453 50.02 241.792 50.5006 244.163 50.6929C251.854 51.3017 259.256 50.3404 266.209 46.8477C266.722 46.5913 267.267 46.4311 267.939 46.1427V57.9347C267.875 58.0309 267.811 58.1591 267.715 58.1911C262.3 60.4341 256.66 61.8761 250.828 62.1645C247.175 62.3568 243.49 62.4529 239.837 62.1645C233.396 61.6518 227.629 59.3767 223.078 54.5702C221.284 52.6796 220.002 50.5006 218.881 47.9692C218.56 48.6101 218.304 49.1228 218.08 49.6034C214.587 57.1977 208.595 61.2993 200.36 62.2286C195.906 62.7413 191.516 62.1965 187.35 60.4341C181.806 58.0629 177.961 54.0895 176.231 48.2256C176.167 48.0012 176.103 47.7769 176.006 47.5526C176.006 47.5206 175.942 47.4886 175.718 47.2963V78.0901C174.244 78.4747 162.74 78.5708 160.69 78.2183V45.8543C160.337 46.2709 160.145 46.367 160.081 46.5593C157.71 53.5127 152.775 57.9668 146.014 60.338C137.682 63.254 129.191 63.254 120.86 60.2739C114.419 57.9668 109.644 53.7691 107.177 47.2322C107.113 47.072 106.985 46.9438 106.792 46.6554C106.664 46.9118 106.568 47.072 106.504 47.2322C104.005 53.737 99.2621 57.9988 92.8214 60.2739C84.426 63.254 75.9344 63.2219 67.507 60.306C63.0209 58.7358 59.2397 56.0442 56.4199 52.1669C56.2917 51.9746 56.1315 51.8144 55.8752 51.494C55.3945 52.5835 55.6829 53.6089 55.6509 54.6022C55.5868 55.5956 55.6509 56.5889 55.6509 57.5823C55.6509 58.6077 55.6509 59.6651 55.6509 60.6584C54.305 61.1071 3.45192 61.2673 0.31165 60.8828C-0.0408289 59.6331 -0.136961 1.95466 0.247562 0H15.1478V48.0974H54.0487C53.8885 47.5526 53.7923 47.104 53.6321 46.6234C52.3183 42.4257 52.062 38.1639 53.0553 33.87C54.8177 26.1475 59.7524 21.1487 66.9302 18.2328C71.8008 16.2461 76.9278 15.6693 82.1509 15.9256C86.3806 16.1179 90.4822 16.887 94.3595 18.6173C100.031 21.1487 104.229 25.1221 106.504 30.9861C106.6 31.2104 106.696 31.4027 106.824 31.7231C107.017 31.4027 107.209 31.1784 107.305 30.922C109.804 24.5454 114.515 20.4758 120.763 18.0726C125.185 16.3743 129.768 15.7975 134.446 15.8936C139.028 15.9897 143.482 16.7267 147.68 18.6173C153.608 21.2449 157.902 25.4105 160.049 31.5949C160.113 31.7552 160.177 31.9154 160.273 32.0756C160.305 32.1076 160.369 32.1397 160.594 32.2999V17.5599C162.003 17.1753 173.731 17.0792 175.974 17.4317C175.622 22.1101 174.565 26.6923 174.308 31.4027C174.436 31.4347 174.565 31.4668 174.661 31.5309C174.853 31.3066 175.109 31.0823 175.173 30.8259C177.448 22.4946 183.505 18.425 191.451 16.5986C195.521 15.6693 199.655 15.6052 203.724 16.6626C210.389 18.425 215.1 22.5266 217.951 28.7751C218.208 29.2558 218.432 29.7685 218.753 30.4734ZM191.676 50.3725C194.175 50.4366 196.61 50.052 198.95 49.0266C202.763 47.3604 205.134 44.5405 205.422 40.3108C205.775 35.6965 204.045 32.0115 199.911 29.8966C194.239 26.9807 188.439 27.1088 182.896 30.2812C179.275 32.364 177.577 35.6645 177.769 39.8942C177.961 44.0278 180.14 46.8477 183.697 48.6421C186.196 49.8918 188.856 50.4366 191.676 50.3725ZM79.8117 50.3725C83.1442 50.3725 85.6757 49.8277 87.7906 48.7062C91.6037 46.6554 93.6225 43.4511 93.6225 39.1252C93.6225 34.7993 91.6358 31.4668 87.7265 29.5762C82.7918 27.205 77.6648 27.1729 72.7301 29.5442C68.6926 31.4668 66.7059 34.8634 66.77 39.3815C66.8341 43.8356 69.013 46.9759 72.9544 48.9305C75.1974 50.02 77.6648 50.4686 79.8117 50.3725ZM133.228 27.9099C130.697 27.8779 128.037 28.3585 125.602 29.7364C121.949 31.8192 120.09 34.9595 120.123 39.1893C120.155 43.4831 122.045 46.7195 125.858 48.6421C130.825 51.1095 135.984 51.1095 140.983 48.7703C144.988 46.8797 146.975 43.5151 146.943 39.1252C146.943 34.7032 144.828 31.4988 140.887 29.4801C138.58 28.2945 136.08 27.8779 133.228 27.9099ZM231.89 36.7219C239.773 36.5297 247.528 36.3694 255.314 36.2092C255.346 35.7606 255.378 35.5363 255.378 35.312C255.346 35.0236 255.314 34.7352 255.25 34.4468C254.577 31.5309 252.719 29.6723 249.931 28.7431C246.663 27.6856 243.298 27.6536 239.965 28.2304C238.716 28.4547 237.466 28.8712 236.377 29.4801C233.557 31.0182 232.275 33.4855 231.89 36.7219Z" fill="white"/>
</svg>
